HIERARCHY
ROOT hips
{
  OFFSET 0 10.680822821525009 1.3929502295107734
  CHANNELS 6 Xposition Yposition Zposition Yrotation Xrotation Zrotation
  JOINT spine
  {
    OFFSET -7.042017322922631e-31 0.6058489940359625 0
    CHANNELS 3 Yrotation Xrotation Zrotation
    JOINT chest
    {
      OFFSET 0 1.2699794144455032 0
      CHANNELS 3 Yrotation Xrotation Zrotation
      JOINT upperChest
      {
        OFFSET 0 1.217799211677689 0
        CHANNELS 3 Yrotation Xrotation Zrotation
        JOINT neck
        {
          OFFSET 0 1.5248826104153006 0
          CHANNELS 3 Yrotation Xrotation Zrotation
          JOINT head
          {
            OFFSET 0 0.8197772727844447 0
            CHANNELS 3 Yrotation Xrotation Zrotation
            JOINT leftEye
            {
              OFFSET 0.2793952361220866 0.6769952096623495 0.1830357412467788
              CHANNELS 3 Yrotation Xrotation Zrotation
              End Site
              {
                OFFSET 0.2793952361220866 0.6769952096623495 0.1830357412467788
              }
            }
            JOINT rightEye
            {
              OFFSET -0.27939522230689573 0.676995205357064 0.18303631459760622
              CHANNELS 3 Yrotation Xrotation Zrotation
              End Site
              {
                OFFSET -0.27939522230689573 0.676995205357064 0.18303631459760622
              }
            }
          }
        }
        JOINT leftShoulder
        {
          OFFSET 0.41486978509200423 1.1670505408695453 0
          CHANNELS 3 Yrotation Xrotation Zrotation
          JOINT leftUpperArm
          {
            OFFSET 0.9737926108153417 0 0
            CHANNELS 3 Yrotation Xrotation Zrotation
            JOINT leftLowerArm
            {
              OFFSET 2.5269332222665284 0 0
              CHANNELS 3 Yrotation Xrotation Zrotation
              JOINT leftHand
              {
                OFFSET 2.4263782738425914 0 0
                CHANNELS 3 Yrotation Xrotation Zrotation
                JOINT leftIndexProximal
                {
                  OFFSET 0.724320348022514 0.08170607082582437 0.20360061616140124
                  CHANNELS 3 Yrotation Xrotation Zrotation
                  JOINT leftIndexIntermediate
                  {
                    OFFSET 0.36548960630744587 -0.010566596513783999 -0.01414783573280308
                    CHANNELS 3 Yrotation Xrotation Zrotation
                    JOINT leftIndexDistal
                    {
                      OFFSET 0.22502819650693362 -0.007863819831430696 -0.007567681939621526
                      CHANNELS 3 Yrotation Xrotation Zrotation
                      End Site
                      {
                        OFFSET 0.22502819650693362 -0.007863819831430696 -0.007567681939621526
                      }
                    }
                  }
                }
                JOINT leftLittleProximal
                {
                  OFFSET 0.6720322998298205 0.08170601055037707 -0.3230036039466837
                  CHANNELS 3 Yrotation Xrotation Zrotation
                  JOINT leftLittleIntermediate
                  {
                    OFFSET 0.34583592281688713 5.476543019078406e-8 1.3869203337180114e-7
                    CHANNELS 3 Yrotation Xrotation Zrotation
                    JOINT leftLittleDistal
                    {
                      OFFSET 0.19925728062053938 0.003098047439490381 0.0038303983709246925
                      CHANNELS 3 Yrotation Xrotation Zrotation
                      End Site
                      {
                        OFFSET 0.19925728062053938 0.003098047439490381 0.0038303983709246925
                      }
                    }
                  }
                }
                JOINT leftMiddleProximal
                {
                  OFFSET 0.7300436596551069 0.0817073395107144 0.022661722987926763
                  CHANNELS 3 Yrotation Xrotation Zrotation
                  JOINT leftMiddleIntermediate
                  {
                    OFFSET 0.40758254347686607 -0.0000012383587111308714 2.408460318820138e-7
                    CHANNELS 3 Yrotation Xrotation Zrotation
                    JOINT leftMiddleDistal
                    {
                      OFFSET 0.2514490105498507 0.0000013869132886590307 9.738618134136345e-8
                      CHANNELS 3 Yrotation Xrotation Zrotation
                      End Site
                      {
                        OFFSET 0.2514490105498507 0.0000013869132886590307 9.738618134136345e-8
                      }
                    }
                  }
                }
                JOINT leftRingProximal
                {
                  OFFSET 0.7217261161191838 0.08170601902187746 -0.15043395722184966
                  CHANNELS 3 Yrotation Xrotation Zrotation
                  JOINT leftRingIntermediate
                  {
                    OFFSET 0.37808807487521556 0.0000013754022405443322 2.2046919317952884e-7
                    CHANNELS 3 Yrotation Xrotation Zrotation
                    JOINT leftRingDistal
                    {
                      OFFSET 0.21812105442344254 -0.002713483731960231 -0.004991354517454624
                      CHANNELS 3 Yrotation Xrotation Zrotation
                      End Site
                      {
                        OFFSET 0.21812105442344254 -0.002713483731960231 -0.004991354517454624
                      }
                    }
                  }
                }
                JOINT leftThumbProximal
                {
                  OFFSET 0.10793587079521427 -0.1652791240518252 -0.07775251827190094
                  CHANNELS 3 Yrotation Xrotation Zrotation
                  JOINT leftThumbIntermediate
                  {
                    OFFSET 0.40355819082296684 -0.017484006740276614 0.3177776014416309
                    CHANNELS 3 Yrotation Xrotation Zrotation
                    JOINT leftThumbDistal
                    {
                      OFFSET 0.2318764658022603 -0.018510186824293617 0.21396001800186287
                      CHANNELS 3 Yrotation Xrotation Zrotation
                      End Site
                      {
                        OFFSET 0.2318764658022603 -0.018510186824293617 0.21396001800186287
                      }
                    }
                  }
                }
              }
            }
          }
        }
        JOINT rightShoulder
        {
          OFFSET -0.4148697850920044 1.1670505408695453 0
          CHANNELS 3 Yrotation Xrotation Zrotation
          JOINT rightUpperArm
          {
            OFFSET -0.9737926108153414 0 0
            CHANNELS 3 Yrotation Xrotation Zrotation
            JOINT rightLowerArm
            {
              OFFSET -2.5269332222665293 0 0
              CHANNELS 3 Yrotation Xrotation Zrotation
              JOINT rightHand
              {
                OFFSET -2.42637827384259 0 0
                CHANNELS 3 Yrotation Xrotation Zrotation
                JOINT rightIndexProximal
                {
                  OFFSET -0.724320348022514 0.08170607082582437 0.20360061616140124
                  CHANNELS 3 Yrotation Xrotation Zrotation
                  JOINT rightIndexIntermediate
                  {
                    OFFSET -0.36548960630744587 -0.010566596513783999 -0.01414783573280308
                    CHANNELS 3 Yrotation Xrotation Zrotation
                    JOINT rightIndexDistal
                    {
                      OFFSET -0.22502819650693362 -0.007863819831430696 -0.007567681939621526
                      CHANNELS 3 Yrotation Xrotation Zrotation
                      End Site
                      {
                        OFFSET -0.22502819650693362 -0.007863819831430696 -0.007567681939621526
                      }
                    }
                  }
                }
                JOINT rightLittleProximal
                {
                  OFFSET -0.6720322998298205 0.08170601055037707 -0.3230036039466837
                  CHANNELS 3 Yrotation Xrotation Zrotation
                  JOINT rightLittleIntermediate
                  {
                    OFFSET -0.34583592281688713 5.476543019078406e-8 1.3869203337180114e-7
                    CHANNELS 3 Yrotation Xrotation Zrotation
                    JOINT rightLittleDistal
                    {
                      OFFSET -0.19925728062053938 0.003098047439490381 0.0038303983709246925
                      CHANNELS 3 Yrotation Xrotation Zrotation
                      End Site
                      {
                        OFFSET -0.19925728062053938 0.003098047439490381 0.0038303983709246925
                      }
                    }
                  }
                }
                JOINT rightMiddleProximal
                {
                  OFFSET -0.7300436596551069 0.0817073395107144 0.022661722987926763
                  CHANNELS 3 Yrotation Xrotation Zrotation
                  JOINT rightMiddleIntermediate
                  {
                    OFFSET -0.40758254347686607 -0.0000012383587111308714 2.408460318820138e-7
                    CHANNELS 3 Yrotation Xrotation Zrotation
                    JOINT rightMiddleDistal
                    {
                      OFFSET -0.2514490105498507 0.0000013869132886590307 9.738618134136345e-8
                      CHANNELS 3 Yrotation Xrotation Zrotation
                      End Site
                      {
                        OFFSET -0.2514490105498507 0.0000013869132886590307 9.738618134136345e-8
                      }
                    }
                  }
                }
                JOINT rightRingProximal
                {
                  OFFSET -0.7217261161191838 0.08170601902187746 -0.15043395722184966
                  CHANNELS 3 Yrotation Xrotation Zrotation
                  JOINT rightRingIntermediate
                  {
                    OFFSET -0.37808807487521556 0.0000013754022405443322 2.2046919317952884e-7
                    CHANNELS 3 Yrotation Xrotation Zrotation
                    JOINT rightRingDistal
                    {
                      OFFSET -0.21812105442344254 -0.002713483731960231 -0.004991354517454624
                      CHANNELS 3 Yrotation Xrotation Zrotation
                      End Site
                      {
                        OFFSET -0.21812105442344254 -0.002713483731960231 -0.004991354517454624
                      }
                    }
                  }
                }
                JOINT rightThumbProximal
                {
                  OFFSET -0.10793587079521427 -0.1652791240518252 -0.07775251827190094
                  CHANNELS 3 Yrotation Xrotation Zrotation
                  JOINT rightThumbIntermediate
                  {
                    OFFSET -0.40355819082296684 -0.017484006740276614 0.3177776014416309
                    CHANNELS 3 Yrotation Xrotation Zrotation
                    JOINT rightThumbDistal
                    {
                      OFFSET -0.2318764658022603 -0.018510186824293617 0.21396001800186287
                      CHANNELS 3 Yrotation Xrotation Zrotation
                      End Site
                      {
                        OFFSET -0.2318764658022603 -0.018510186824293617 0.21396001800186287
                      }
                    }
                  }
                }
              }
            }
          }
        }
      }
    }
  }
  JOINT leftUpperLeg
  {
    OFFSET 0.8486251390888677 -0.4421577294694363 0
    CHANNELS 3 Yrotation Xrotation Zrotation
    JOINT leftLowerLeg
    {
      OFFSET 0 -4.10147812638609 0
      CHANNELS 3 Yrotation Xrotation Zrotation
      JOINT leftFoot
      {
        OFFSET -0.0002543926476658853 -4.77292286812444 0.007402811231737388
        CHANNELS 3 Yrotation Xrotation Zrotation
        JOINT leftToes
        {
          OFFSET 0 -0.7027875951174846 1.2062924140498823
          CHANNELS 3 Yrotation Xrotation Zrotation
          End Site
          {
            OFFSET 0 -0.7027875951174846 1.2062924140498823
          }
        }
      }
    }
  }
  JOINT rightUpperLeg
  {
    OFFSET -0.8486251390888677 -0.4421577294694363 0
    CHANNELS 3 Yrotation Xrotation Zrotation
    JOINT rightLowerLeg
    {
      OFFSET 0 -4.10147812638609 0
      CHANNELS 3 Yrotation Xrotation Zrotation
      JOINT rightFoot
      {
        OFFSET 0.0002543926476658853 -4.77292286812444 0.007402811231737388
        CHANNELS 3 Yrotation Xrotation Zrotation
        JOINT rightToes
        {
          OFFSET 0 -0.7027875951174846 1.2062924140498823
          CHANNELS 3 Yrotation Xrotation Zrotation
          End Site
          {
            OFFSET 0 -0.7027875951174846 1.2062924140498823
          }
        }
      }
    }
  }
}
MOTION
Frames: 4
Frame Time: 0.03333333333333333
0.23322898149490356 1.86527493390712 -0.14436016976833344 0.8036870187622924 15.47592015082579 -3.8123328995994767 3.5832511341067086 20.457822168292868 4.715486432335595 -2.2962500110310162 -1.8755499289905342 2.7096031526369204 0 0 0 1.2959954884365417 -4.9421112221325165 -1.5675764004355086 1.1702208505804315 -15.157410185345974 -1.4072885710990144 0 0 0 0 0 0 -1.8987879334321116 1.344274352593064 2.1316731511268014 17.64536564987179 -36.0719123288151 -31.7523398322329 -63.619024250396514 -7.126352463842593 5.335821724304213 -24.516328797539405 35.763240115879604 12.161873565863145 -13.155533574969096 5.1679077187358 12.629332784802719 0.012009392541951193 8.188118569154803e-8 -0.00014705065549421666 -1.3287650464455925 0.1733925408312122 14.939138157614465 37.68342252521282 7.7078627679176615 -0.7979323804247528 -0.024101581484003005 -9.482444660665445e-7 0.0003273676860564593 -1.335726987382186 0.12111155046977638 14.939632228099551 7.936579122137878 0.13251351201813844 8.55799356633499 0.002400166159040866 -0.000008584407667467391 -0.000041943320696970846 -1.1691190505934528 0.1354334525515119 13.213910190801363 23.75259419169685 2.6519810145263762 2.850700479962879 0.000025463775224169756 0.000003271431220044041 -0.0000994065334201772 -0.7359884184460402 0.05301866064259714 8.256939147167339 -1.756688819484828 -6.769998041178835 2.394394670532262 0.5369910763921757 15.961408895040437 30.720338827272144 14.919628471336493 -12.352324838696244 23.345715712238686 1.6250253872188722 1.5516282722917054 0.6061513729469353 -4.456182132291297 -21.698086097453505 33.3065872093451 28.518124252417355 -3.941987069783095 -1.377689880579567 9.303040360580171 1.6765767419367954 -40.97358068950999 21.06538521113754 3.7256171168448766 -16.10060427558019 -0.2626349384241879 0.010099707063003354 4.266222873236 -0.049181653076990114 0.0001895151466655223 0.5707558271930624 -25.69866697657756 7.084072921257243 6.874854406034679 -0.16083803843233035 -0.0018099173793442414 3.761556146478354 -0.3335339161530818 0.0027400155972069646 4.040205237311209 3.6959053017823456 -0.3303976913741735 -4.351419722395985 -0.35808321799280984 0.021858730303243583 6.66114041881819 -0.35849408855043535 0.012959451964799713 4.701760785291733 -8.407676087447332 1.2067601699667834 2.2970504175405417 -0.6826841782987593 0.056728038698064406 9.645575437099962 -0.31974329295689924 0.013620527082600482 4.486665181897914 -3.378223179478583 -27.997444108783533 10.384799856650629 -0.45987404061513004 13.260997740807975 -12.251261689634259 -3.6056272198878547 -16.189953530961265 -11.76189930727073 9.007372405928107 -60.62803889499987 6.071768508868351 14.40649485686611 62.56570939731533 16.39329397153495 6.893019302496691 -14.711272463008473 -0.25161060465744 0.0000221655024227316 -4.45334554122157 -0.000011179210190373522 -43.37161070727962 -45.26784704304016 22.83516352947456 15.374008146280815 62.46748755930831 6.057855152318092 -16.667137868613878 -20.833723757799575 4.703693565547772 -0.0000011627368653466456 -4.572017879290568 -0.0000028014499233745346
0.2917221784591675 0.854201821419327 0.01902879774570465 0.5252216545957298 15.91826518258826 -4.573068872431362 2.750050912778937 17.692521078382942 4.849978978438371 -2.817218414327415 -1.0168660974919579 3.0621091234568283 0 0 0 1.5556925321795003 -5.249151047295482 -1.6926252105782649 2.01521252383518 -14.815128744199248 -1.370967835239414 0 0 0 0 0 0 -0.08703662571916457 1.3143036340602623 3.640571697827212 26.901061630981804 -29.022937681699172 -36.26740866715326 -76.90219934418803 -7.617194322571462 7.216908078303904 -25.83685504525201 34.77690542299689 4.834876844518904 -12.924366655223139 5.119006866347848 10.12672207575728 0.011998998848780308 6.044399905521877e-8 -0.00015499746219907893 -1.3287858516767832 0.17338406975702733 14.939133977543323 37.73607497228705 9.241774623592523 -2.917874209185925 -0.02410405442573893 0.0000021433215522976174 0.00027920980293007604 -1.3357324287222199 0.1211128444733499 14.939644657344164 7.936550745854782 0.1324983574953911 8.558007582854504 0.002399869964619676 -0.000005023302722588109 -0.00009140975302590475 -0.9249615781283623 0.08439022602943481 10.424930268891329 23.862029513168594 3.3083683371381882 1.192587349231815 0.000021825272778784016 -0.0000023502450812078906 -0.00015469926153436706 -0.7358221063154803 0.053005500516620035 8.255201667735594 -4.39557475338126 -5.7849991818402735 -7.5893168090928995 0.5369875578023818 15.961412447076222 30.720310193993903 15.918936484267894 -12.19937542563439 19.16358594952802 0.9911567115062528 1.3788325945240103 1.649480512999395 -0.8026450309393017 -9.437942870824715 17.506118469948692 37.09651490761234 -4.938747235720603 -2.153345389364403 7.490558561340796 -9.375638467977586 -41.81077605324486 20.99471062250711 1.01672733742471 -9.772608955640779 -0.6512510020881472 0.05763102484056663 9.985506965271275 -1.4401041099859644 0.26969707177136665 21.372153592153197 -25.291655967479503 12.805239236268635 19.376875033600594 -0.5053881385613782 0.022274349679601086 8.802876107219912 -2.001175058201035 0.45925931376965656 29.484135422628288 2.5586899834457104 -1.7209552311734713 10.010931536671485 -0.7446745561002337 0.0826628533444949 12.377640205640919 -2.060286935472495 0.5600955314683679 31.03040411430253 -9.055791019714368 2.7220175145889787 15.111205662696516 -1.0645592982260972 0.14218148581481008 15.361760429942896 -2.003462725057471 0.5544172412668983 30.527802113206324 -3.234765813320028 -22.849108320267547 13.97357384281567 -14.709389594382898 13.877278445537847 -17.18799187830603 -19.846904378462327 -10.65825170934745 -11.922693260154901 10.736213534315157 -53.881237259394325 5.027064605659667 9.24425060359374 51.49404213101034 10.958521308976024 3.724368438449782 -10.585644902982645 -2.494855596938033 -0.000015091332553644732 -5.693471755040685 -0.00000523673289664077 -42.58446609614422 -38.482073729085336 20.94576634513874 15.640659326102165 51.70818512151074 3.4980035360395214 -13.916340361505627 -15.880800978791497 4.576681792312669 -0.00002876547947753387 -6.8190971944416425 7.602364086129271e-7
0.33580073714256287 0.010537652107803552 0.06261652708053589 1.1432165460205996 17.026000596330718 -4.729984699809574 2.482728302481216 17.623286250799932 5.387318225308098 -3.1609046132870717 -1.777497128324059 3.2711729600199346 0 0 0 1.6056510100617978 -5.792701935403588 -1.8736444311964329 1.9950503445269057 -16.643990946037324 -1.5984547127577065 0 0 0 0 0 0 1.5271300669879688 1.1041376819299695 5.173484324112335 32.06942714370983 -26.10704893552881 -35.783275544495396 -85.4292362492378 -7.700034724352639 8.463568739260593 -21.592549526044134 31.44982170334422 5.296414780652249 -12.767041407035952 5.095989945791884 8.301228085078197 0.011998998848780308 6.044399905521877e-8 -0.00015499746219907893 -1.328757684594472 0.17338911238071486 14.939121548271865 37.73681040896583 10.362052051076532 -4.464861223802379 -0.024104928209602444 -0.0000057739832433943705 0.0004180073479124493 -1.3357191987973895 0.12111842069493546 14.939638827429153 7.93660327043046 0.1325241308562662 8.558000320492997 0.0024085131721277653 -0.0000011674240716085561 -0.00010452729281641011 -0.7457166508944221 0.05473054759629176 8.39420333476317 23.93014241021354 3.7887874275573474 -0.014262243686738223 0.000015277530706259893 -0.00000403693302388817 -0.0002014480064746909 -0.7357143357363356 0.052990842951071024 8.253964543569307 -6.504010038536448 -4.813365440207963 -14.663482257410882 0.5370122766740415 15.961405343004714 30.720326037424346 16.631089057760953 -12.033608135473331 16.1228279051997 0.5785595952941223 1.316020705024841 0.13639888702728653 -4.809492916266887 -2.864595761364329 6.590477459615604 42.129154584719295 -5.464703132701614 -2.6743514933384556 10.377878875189348 -17.957825697311815 -41.6030925988556 20.967585144046534 0.737136538000723 -9.120410623617065 -0.6910484587244988 0.06473055029745527 10.575909495209684 -1.5759671586823223 0.3258051676304102 23.518003397637777 -25.170083064190855 13.395698996268226 20.68185926279978 -0.5408009576441216 0.02648678585619181 9.323149694810699 -2.157948594886453 0.5473946817655585 32.10858130796984 2.4177733229437863 -1.8474275787561965 11.494607104059206 -0.7841682448257832 0.09111821038084769 12.967532213656968 -2.217485802720269 0.6596360354867198 33.746005819845884 -9.104259961386537 2.888812618715992 16.43274047143249 -1.103456222642391 0.1531614916181513 15.951499139520653 -2.1592471100832955 0.6523877158209958 33.21377551966004 -3.1920622766705966 -22.320640812252005 14.336798003705784 -16.182877616457937 13.872499600849313 -17.70330601531968 -21.50602735222746 -10.095075335070723 -12.02952720177369 12.068495123144086 -53.21794416414959 2.945050950896408 7.304091299889859 48.95811023506146 9.217199257763253 1.80547914820376 -7.850846242417337 -4.1233890826162805 0.000008853091757040749 -6.945377813514064 -0.0000046173913553601755 -42.892406182129086 -37.72076719317003 20.95465806089065 15.297533735137982 49.88029377008915 2.4036590619315463 -11.945366391331573 -12.88616264358557 4.098540402515195 0.000014756557894182383 -8.743284118640249 -0.000006282947078014323
0.3581155240535736 -0.454692335990341 0.05633159726858139 1.7189373656434903 17.627496636882974 -4.7034231999937 2.525833653221779 18.583608554867467 5.867201066836565 -3.330236986949033 -2.66106959726778 3.3416905191743083 0 0 0 1.5815243434137856 -6.183159629473636 -2.002422125647887 1.791996892256524 -18.40433490114442 -1.841550474290363 0 0 0 0 0 0 2.1518876061780805 0.959144869564407 5.903635763411334 34.78526541554255 -26.496244749138448 -34.95005967329949 -88.01449106638565 -7.688752119541497 8.842519288636309 -18.991483577152014 29.421017647833224 6.553505884266579 -12.696490176832722 5.088844685050467 7.4362194785292814 0.011984160363510032 0.000006099616268569342 -0.00025005203114661416 -1.3287447746815308 0.17338455000690228 14.9391323277032 37.72591005770429 10.893046692277371 -5.198364793471174 -0.02409276026904405 3.7304985392147594e-7 0.0004114906537535111 -1.3357410708504593 0.1211084421931516 14.939646307176513 7.936570194610739 0.13251484604302857 8.558000320492997 0.0024012315001293257 -0.0000026522359493247317 -0.00007608369794545743 -0.660603564035257 0.042918334761736114 7.433141776352387 23.95898338625519 4.016837725544778 -0.5853489115777692 0.000021707834283058925 0.000006363466535612573 -0.00023294677723807085 -0.7356752254392754 0.05297694911305894 8.253409486890956 -7.573571810510351 -4.259675084609644 -17.94009200071944 0.5370274609531083 15.961417775130018 30.72032298384177 16.962511830239585 -11.939093129678405 14.685409080304764 0.41789725931062977 1.3306589299325464 -1.5538972302172742 -8.974662893174276 -1.3118122019507332 1.9955012123094713 43.53790212006479 -5.603402701214872 -2.828225227626718 13.285622567935421 -22.690723383423588 -41.3951022836892 20.993836187068755 1.0041024376679535 -9.742969539032664 -0.6530434044206432 0.057939097211303206 10.012274717315714 -1.446302370491215 0.2721355832865273 21.46954168603599 -25.28712156030204 12.83128554942196 19.436277316442975 -0.506990196371903 0.022462079844483455 8.826489722097133 -2.008375767567076 0.46310243352884806 29.603255235799963 2.5528281971777327 -1.7268113537339773 10.07828007233679 -0.7464694559720124 0.08303473218717279 12.40441142112985 -2.0675197592677215 0.5644513741910195 31.153650670255985 -9.05795039512818 2.7292208410344467 15.171228342670446 -1.066337571758019 0.14266757800602187 15.388557006712864 -2.01063604934258 0.558707762984768 30.64971448379162 -3.2337397780772954 -22.82490728237925 13.990072553017411 -14.776278620739566 13.877337368234437 -17.211387772471895 -19.922246131240797 -10.632629529734052 -11.92718629658556 12.810648464048306 -54.74026873117864 1.60638036873522 6.895799958782811 50.750185361860225 9.047909984066768 1.1476735898356427 -7.753517469483665 -4.4297704263390525 0.000035802662498487175 -7.849254405241784 -0.000003162796765908762 -43.455165244014374 -38.9463903873655 21.424308885420167 15.989328206529347 51.871749695431674 3.12254414667746 -11.861885749810224 -13.267323922547956 3.7318193821476697 0.000009509823408134069 -9.694726135856602 -0.000003860577870030001
